<?xml version="1.0" encoding="utf-8"?>
<!-- Generator: Adobe Illustrator 22.0.1, SVG Export Plug-In . SVG Version: 6.00 Build 0)  -->
<svg version="1.1" id="Layer_1" xmlns="http://www.w3.org/2000/svg" xmlns:xlink="http://www.w3.org/1999/xlink" x="0px" y="0px"
	 viewBox="0 0 2000 1000" enable-background="new 0 0 2000 1000" xml:space="preserve">
<linearGradient id="SVGID_1_" gradientUnits="userSpaceOnUse" x1="1000" y1="-9.094947e-13" x2="1000" y2="1000">
	<stop  offset="0" style="stop-color:#000000"/>
	<stop  offset="1" style="stop-color:#000000"/>
</linearGradient>
<rect fill="url(#SVGID_1_)" width="2000" height="1000"/>
<linearGradient id="SVGID_2_" gradientUnits="userSpaceOnUse" x1="1000" y1="300" x2="1000" y2="1000">
	<stop  offset="0" style="stop-color:#565656"/>
	<stop  offset="1" style="stop-color:#000000"/>
</linearGradient>
<path fill="url(#SVGID_2_)" d="M2000,557v443H0l0-443h39.1c0,0,0.1-5.4,0-8c-0.1-1.6,0.3-2.9,1.6-4.1c3.6-3.4,14.4-13.7,16.3-15.4
	c0.4-0.4,0.8-1,0.9-1.6c0.2-1.6,6.5-52.2,6.6-52.6c0.6,3.7,4.5,47.9,4.4,52.1c0,0.9,0.2,1.4,0.8,2c1.9,1.7,13.7,13.1,18.1,16.5
	c1.1,0.9,1.3,1.9,1.3,3.3c-0.1,3.6,0,10.8,0,10.8h18.1v-25.5h37.5v61.6h4.6v32.5h7.9v-9.3h4.7v-18.3h12.5v-15.2h33.5v-44.7H219v-10
	l1-10l1.1-33.4c0,0,0.2-0.6,0.4-1c0.2,0.4,0.4,0.8,0.4,0.8l2.1,33.7l1,10l0,10h10.2c0,0,0.1,31.7-0.1,47.3c0,2.9,0.6,5.2,3,7
	c2,1.5,2.7,3.4,2.6,6l-0.1,19.4h19.7v-55L279,558v-31.9c0-1.6-1.3-2.6-2.4-3.7c-2.2-2.3-2.9-4.8-2.4-7.9c0.1-0.5,0.3-1.1,0.6-1.3
	c2-1.1,1.7-3,1.7-4.8c0-1.1,0-2.3,0-3.3c0.3-0.2,0.5-0.3,0.6-0.3c2.1,0,4.2,0.1,6.2,0c3-0.3,5.5,0.3,7.5,2.9c1.4,1.8,6-3.1,8-2.9
	c1.2,0.1,2.3,0.1,3.5,0c1.2-0.1,5,5.2,6.3,7c0,0.4,0,0.8,0,1.2c0.3,0,0.6,0.1,0.8-0.1c1.6-1.3,28.6-19.9,28.6-19.9s-3-12.3-2-13.5
	c1.6-1.9,6-3,6-3l0-19.7l0.2-8.5l0.2-1.2l1.6,12.9l1,16.4c0.4,0.5,5.8,0.7,6.3,3.3c0.4,1.8-1.3,13.2-1.3,13.2l18.4,15.2h5
	c0.2,0,0.4-0.1,0.7,0c0,2.8,0,5.7,0,8.5c0,0.6-2.4,2.8-2.4,2.8l0,10.2l11.1,0v-43.4h94l-1-10l2-4h3l2,4l-1,10h19
	c0.1,0,0.5,0.9,0.7,1.1c0,7.2,0,22.1,0,22.1h14v11.5H540v-96.2l5.5-15.6c0.4-0.9,0.9-2,2.6-1.9l26.2,0c0,0,1.5,0.5,1.7,1.4
	c0.1,0.5,6,20.1,6,20.1l0,82.6c0,2,0.4,3.6,1.9,5.1c1.7,1.7,5.8,2.3,5.8,2.3l5.7,0v-35.8h43.8v85.8h17.1l0.1,25.4l10.8,0.1v-88H723
	l8.3,12.4l-0.1,35.1c0,0-0.3,2.3,1,3.1c2,1.2,2.2,5.3,2.2,5.3l0,2.7h10.9l0,17.8H768V571h57.8l0-14.1c0,0,0.1-0.2,0.1-0.3
	c0.1-0.1,0.2-0.2,0.2-0.3c1.7,0,32.5,0,32.5,0v-10.9h12.5v-20.1H884v-50l1.1,4.2l2.8,45.8h9.7l0,23.9h7.8v-71.9c0,0,4.7-4.5,6.7-7
	c2.4-3,9-3,9-3h11.7v-71.8H949v-89.9l2-5.7v16.6l1,3.6v36.5l2,24.9v14h14v97.8h4v12h10.8c0,0,0,33.7,0,50.2c0,14.8,0,44.6,0,44.6
	h6.3v23h37.6v-40.3h18.6c0,0,0-74.3,0-80.6c0-1.1,0.3-1.9,1.1-2.7c2.7-2.6,11.7-9.4,11.7-9.4l26.5,0l9.9,12.2l0,45.4h47.7v-79.2h7.9
	v12.9h24.2v-12.9h5.7v24.7l2.1,2.4l0,13.8h7v29.1h22.7l8.8-9l12.5-1.9v-6.3l-4.9-6.2l0-20.7h18.8l0-35.8l0.8-0.3v36.1h5.4l0-35.9
	h1.5l0,35.9h8.6l0,15.4l-4.8,11.6l0,38.7l4,9.7l0,47.3h3.1c0,0,0-59.8,0-89.7c0-0.1,0.1-0.2,0.1-0.3c0.1-0.1,0.2-0.2,0.4-0.4
	c4.9,0,9.9,0,15.1,0c0-6.6,0-13.1,0-19.6c0-0.1-0.1-0.2-0.2-0.3c-0.1-0.1-0.2-0.1-0.4-0.3h-2.6v-35c0,0,9,0,13.7,0
	c0.1,0,0.2,0.1,0.3,0.2c0.1,0.1,0,0.1,0,0.1v12.1l17.3-23.4l2.4-47.5l1.4-17.6l2.5-42.4l0.2-9.1c0,0,0.2-0.1,0.6-0.4
	c0,2.6,0,5,0,7.4c0,0.6,0.8,1.4,0.8,1.4l0,24.1l0.8,3.2l2.6,81.1c0,0,12.9,0,19.4,0c0.1,0,0.2,0.1,0.3,0.1c0.1,0.1,0.2,0.2,0.4,0.4
	c0,3.6,0,11.4,0,11.4h15.5v116.7h4.8v43.6h68.7c0,0,0.1-213.5,0-214.3c-0.1-1.4,0.5-2.1,1.8-2.4l28.5-9.3c1.5-0.7,3.2-0.6,4.7,0.2
	l27.9,9.9c0.8,0.2,1.6,0.8,2.2,1.3c2.9,2.7,19.1,18.3,24.3,23.4c1,1,1.4,2,1.4,3.4c-0.1,8,0,75.6-0.1,101.3c0,1.9,0.7,5.1,0.7,5.1
	s0,23.3,0,28.2c1.7,0,4,0,5.7,0c0-27.3,0-54.8,0-82.2c2.9,0,5.7,0,8.5,0c0-10.5,0-49.9,0-49.9h5.5v49.9h10.9v-51.9h6.3v51.9h8.7
	c0,0,0,26.3,0,38.7c0.5-0.1,1,0,1.2-0.2c3.4-2.8,6.7-5.7,10.1-8.5c0.8-0.7,1.9-1.3,2.9-1.4c2.1-0.2,31.7-2.2,32.5-1.3
	c1.8,2.2,17.3,20.3,20.6,23.8c1.2,1.3,2.4,1.6,4.1,1.6c20.7,0,63.8,0,64.8,0c1.3,0,1.8,0.7,1.9,1.8c0.1,0.5,10.5,41.5,10.2,43.8
	c-0.3,2.3-0.1,69.9-0.1,71.3c22.9,0,45.5,0,68.2,0c0.1,0,0.2,0.1,0.3,0.1c0.1,0.1,0.2,0.2,0.4,0.4c0,13.4,0,27,0,40.6
	c15.9,0,31.6,0,47.5,0c0-14.3,0-28.5,0-42.8c11.7,0,23.1,0,34.6,0c4.6,0,4.6,0,9.6-2.3c2.3-1.1,83.1-35.8,83.1-35.8
	s20.2-70.5,21-70.3C1981.7,557.6,2000,557,2000,557z"/>
</svg>
